# xmcd
#
# Track frame offsets: 
#        150
#        5763
#        17714
#        35745
#        46803
#        63757
#        72503
#        98858
#        110087
#        134298
#        158363
#        176291
#        190854
#        209286
#
# Disc length: 3057 seconds
#
# Revision: 0
# Processed by: cddbd v1.5.2PL0 Copyright (c) Steve Scherf et al.
# Submitted via: ExactAudioCopyFreeDBPlugin 1.0
#
DISCID=b90bef0e
DTITLE=Les Fils Du Facteur - Notre Adresse
DYEAR=2009
DGENRE=Hip-Hop
TTITLE0=Nom d'une putain d'intro
TTITLE1=Coquard
TTITLE2=La cible
TTITLE3=Kône terlude
TTITLE4=Matin Bleu
TTITLE5=Heartbreaker
TTITLE6=Gringue
TTITLE7=Souvenirs
TTITLE8=Tuyaux
TTITLE9=Enveloppe P
TTITLE10=Fils uniques
TTITLE11=Speedating
TTITLE12=L'éventail
TTITLE13=Zone érogène
EXTD=
EXTT0=
EXTT1=
EXTT2=
EXTT3=
EXTT4=
EXTT5=
EXTT6=
EXTT7=
EXTT8=
EXTT9=
EXTT10=
EXTT11=
EXTT12=
EXTT13=
PLAYORDER=
